<svg xmlns="http://www.w3.org/2000/svg" version="1.1" xmlns:xlink="http://www.w3.org/1999/xlink" xmlns:svgjs="http://svgjs.dev/svgjs" width="1000" height="1000" viewBox="0 0 1000 1000"><rect width="1000" height="1000" fill="#ffffff"></rect><g transform="matrix(0.7,0,0,0.7,149.57576269232743,448.14942896405444)"><svg viewBox="0 0 396 59" data-background-color="#ffffff" preserveAspectRatio="xMidYMid meet" height="148" width="1000" xmlns="http://www.w3.org/2000/svg" xmlns:xlink="http://www.w3.org/1999/xlink"><g id="tight-bounds" transform="matrix(1,0,0,1,0.23999710548332587,0.028800107343499803)"><svg viewBox="0 0 395.52 58.94239978531302" height="58.94239978531302" width="395.52"><g><svg viewBox="0 0 479.1172626157331 71.4004885647789" height="58.94239978531302" width="395.52"><g transform="matrix(1,0,0,1,83.59726261573311,9.867940170674942)"><svg viewBox="0 0 395.52 51.66460822342901" height="51.66460822342901" width="395.52"><g><svg viewBox="0 0 395.52 51.66460822342901" height="51.66460822342901" width="395.52"><g><svg viewBox="0 0 395.52 51.66460822342901" height="51.66460822342901" width="395.52"><g transform="matrix(1,0,0,1,0,0)"><svg width="395.52" viewBox="4.199999809265137 -32.63999938964844 251.72999572753906 32.880001068115234" height="51.66460822342901" data-palette-color="#14cc59"><path d="M5.52 0Q4.83 0 4.52-0.32 4.2-0.63 4.2-1.29L4.2-1.29 4.2-29.08Q4.2-29.76 4.52-30.07 4.83-30.37 5.52-30.37L5.52-30.37 13.28-30.37Q16.46-30.37 18.63-29.42 20.8-28.47 21.9-26.73 23-25 23-22.71L23-22.71Q23-21.29 22.34-19.89 21.68-18.48 20.58-17.47 19.48-16.46 18.24-16.11L18.24-16.11 18.24-15.94Q18.24-16.11 19.92-15.3 21.61-14.48 22.96-12.88 24.32-11.28 24.32-8.74L24.32-8.74Q24.32 0 12.99 0L12.99 0 5.52 0ZM8.03-17.29L13.09-17.29Q14.79-17.29 16.16-17.96 17.53-18.63 18.3-19.79 19.07-20.95 19.07-22.36L19.07-22.36Q19.07-24.8 17.6-25.94 16.14-27.08 12.92-27.08L12.92-27.08 8.03-27.08 8.03-17.29ZM8.03-3.3L14.38-3.3Q17.24-3.3 18.8-4.8 20.36-6.3 20.36-8.91L20.36-8.91Q20.36-11.33 18.65-12.66 16.94-13.99 13.62-13.99L13.62-13.99 8.03-13.99 8.03-3.3ZM34.89 0.24Q32.71 0.24 31-1.07 29.29-2.39 29.29-5.74L29.29-5.74 29.29-31.69Q29.29-32.64 31.03-32.64L31.03-32.64 31.22-32.64Q32.93-32.64 32.93-31.69L32.93-31.69 32.93-6.08Q32.93-4.3 33.57-3.59 34.2-2.88 35.28-2.88L35.28-2.88Q36.08-2.88 36.55-2.98 37.01-3.08 37.16-3.08L37.16-3.08Q37.55-3.08 37.8-2.29 38.06-1.51 38.06-1.05L38.06-1.05Q38.06 0.24 34.89 0.24L34.89 0.24ZM51.09 0.24Q46.19 0.24 43.61-2.7 41.04-5.64 41.04-11.25L41.04-11.25Q41.04-16.87 43.65-19.91 46.26-22.95 51.09-22.95L51.09-22.95Q55.88-22.95 58.42-19.93 60.96-16.92 60.96-11.25L60.96-11.25Q60.96-5.62 58.45-2.69 55.95 0.24 51.09 0.24L51.09 0.24ZM50.97-2.88Q54.15-2.88 55.66-4.94 57.17-7.01 57.17-11.33L57.17-11.33Q57.17-15.67 55.66-17.75 54.15-19.82 50.97-19.82L50.97-19.82Q47.82-19.82 46.33-17.76 44.84-15.7 44.84-11.33L44.84-11.33Q44.84-6.98 46.32-4.93 47.8-2.88 50.97-2.88L50.97-2.88ZM76.29 0.24Q70.89 0.24 68.24-2.53 65.59-5.3 65.59-11.45L65.59-11.45Q65.59-17.68 68.55-20.31 71.5-22.95 75.9-22.95L75.9-22.95Q77.53-22.95 79.05-22.67 80.56-22.39 81.49-21.92 82.41-21.46 82.41-20.95L82.41-20.95Q82.41-20.61 82.18-20.04 81.95-19.48 81.62-19.06 81.29-18.63 81.02-18.63L81.02-18.63Q80.95-18.63 80.8-18.69 80.66-18.75 80.53-18.8L80.53-18.8Q78.34-19.82 75.8-19.82L75.8-19.82Q72.8-19.82 71.16-17.86 69.52-15.89 69.52-11.55L69.52-11.55Q69.52-8.47 70.18-6.58 70.84-4.69 72.32-3.78 73.8-2.88 76.26-2.88L76.26-2.88Q78.97-2.88 81.14-4L81.14-4Q81.36-4.05 81.47-4.11 81.58-4.17 81.63-4.17L81.63-4.17Q81.9-4.17 82.24-3.76 82.59-3.34 82.84-2.81 83.1-2.27 83.1-1.95L83.1-1.95Q83.1-1.44 82.17-0.93 81.24-0.42 79.67-0.09 78.09 0.24 76.29 0.24L76.29 0.24ZM90.22 0.07Q88.47 0.07 88.47-0.88L88.47-0.88 88.47-31.69Q88.47-32.64 90.22-32.64L90.22-32.64 90.4-32.64Q92.13-32.64 92.13-31.69L92.13-31.69 92.13-12.28 92.3-12.28 100.6-22.19Q101.06-22.78 102.9-22.78L102.9-22.78 103.04-22.78Q103.8-22.78 104.19-22.63 104.58-22.49 104.58-22.24L104.58-22.24Q104.58-21.88 104.14-21.36L104.14-21.36 96.06-11.82 105.02-1.22Q105.39-0.81 105.39-0.54L105.39-0.54Q105.39-0.17 104.97-0.05 104.56 0.07 103.51 0.07L103.51 0.07 103.31 0.07Q102.41 0.07 101.85-0.02 101.28-0.12 100.97-0.49L100.97-0.49 92.3-10.79 92.13-10.79 92.13-0.88Q92.13 0.07 90.4 0.07L90.4 0.07 90.22 0.07ZM123.08 0.07Q122.15 0.07 121.74-0.16 121.32-0.39 121.32-0.88L121.32-0.88 121.32-29.52Q121.32-30.49 123.08-30.49L123.08-30.49 124.62-30.49Q126.06-30.49 126.45-29.69L126.45-29.69 134.65-15.45 135.78-12.72 136.9-15.21 145.13-29.69Q145.54-30.49 146.93-30.49L146.93-30.49 148.37-30.49Q150.11-30.49 150.11-29.52L150.11-29.52 150.11-0.88Q150.11 0.07 148.37 0.07L148.37 0.07 148.08 0.07Q147.15 0.07 146.74-0.16 146.32-0.39 146.32-0.88L146.32-0.88 146.32-24.24 146.25-24.05 137.61-9.03Q137.44-8.74 137.22-8.61 137-8.47 136.65-8.47L136.65-8.47 134.92-8.47Q134.26-8.47 133.94-9.03L133.94-9.03 125.11-24.49 125.11-0.88Q125.11 0.07 123.37 0.07L123.37 0.07 123.08 0.07ZM167.02 0.24Q161.63 0.24 159-2.58 156.38-5.4 156.38-11.21L156.38-11.21Q156.38-16.97 158.94-19.96 161.51-22.95 166.49-22.95L166.49-22.95Q170.93-22.95 173.19-20.07 175.45-17.19 175.45-11.62L175.45-11.62Q175.45-11.38 175.19-10.95 174.93-10.52 174.58-10.19 174.23-9.86 173.98-9.86L173.98-9.86 160.29-9.86Q160.55-6.23 162.15-4.55 163.75-2.88 166.97-2.88L166.97-2.88Q168.78-2.88 170.09-3.32 171.39-3.76 172.61-4.39L172.61-4.39Q172.74-4.44 172.98-4.57 173.22-4.69 173.32-4.69L173.32-4.69Q173.59-4.69 173.94-4.26 174.3-3.83 174.56-3.31 174.81-2.78 174.81-2.54L174.81-2.54Q174.81-2 173.74-1.34 172.66-0.68 170.87-0.22 169.07 0.24 167.02 0.24L167.02 0.24ZM160.29-12.99L171.56-12.99Q171.56-19.82 166.36-19.82L166.36-19.82Q160.77-19.82 160.29-12.99L160.29-12.99ZM182.89 0.07Q181.96 0.07 181.55-0.16 181.13-0.39 181.13-0.88L181.13-0.88 181.13-16.11Q181.13-18.95 180.86-20.2 180.6-21.46 180.6-21.58L180.6-21.58Q180.6-22.12 181.41-22.35 182.23-22.58 182.96-22.58L182.96-22.58Q183.57-22.58 183.87-21.92 184.16-21.26 184.29-20.58 184.43-19.9 184.48-19.7L184.48-19.7Q185.84-21.24 187.64-22.09 189.43-22.95 191.26-22.95L191.26-22.95Q194.58-22.95 196.45-21.08 198.32-19.21 198.32-15.94L198.32-15.94 198.32-0.88Q198.32-0.39 197.9-0.16 197.49 0.07 196.59 0.07L196.59 0.07 196.39 0.07Q195.51 0.07 195.1-0.16 194.68-0.39 194.68-0.88L194.68-0.88 194.68-15.58Q194.68-17.58 193.52-18.69 192.36-19.8 190.26-19.8L190.26-19.8Q188.8-19.8 187.32-18.98 185.84-18.16 184.77-16.75L184.77-16.75 184.77-0.88Q184.77-0.39 184.36-0.16 183.94 0.07 183.06 0.07L183.06 0.07 182.89 0.07ZM211.82 0.24Q209.65 0.24 207.94-1.07 206.23-2.39 206.23-5.74L206.23-5.74 206.23-19.58 204.05-19.58Q203.59-19.58 203.38-19.89 203.18-20.19 203.18-20.87L203.18-20.87 203.18-21.41Q203.18-22.09 203.38-22.4 203.59-22.71 204.05-22.71L204.05-22.71 206.23-22.71 206.74-27.25Q206.79-28.2 208.13-28.2L208.13-28.2 208.55-28.2Q209.23-28.2 209.55-27.97 209.87-27.73 209.87-27.25L209.87-27.25 209.87-22.71 213.5-22.71Q213.97-22.71 214.17-22.4 214.38-22.09 214.38-21.41L214.38-21.41 214.38-20.87Q214.38-20.19 214.17-19.89 213.97-19.58 213.5-19.58L213.5-19.58 209.87-19.58 209.87-6.08Q209.87-4.3 210.49-3.59 211.11-2.88 212.18-2.88L212.18-2.88Q213.01-2.88 213.47-2.98 213.92-3.08 214.06-3.08L214.06-3.08Q214.46-3.08 214.71-2.29 214.97-1.51 214.97-1.05L214.97-1.05Q214.97 0.24 211.82 0.24L211.82 0.24ZM228.88 0.24Q223.97 0.24 221.4-2.7 218.82-5.64 218.82-11.25L218.82-11.25Q218.82-16.87 221.43-19.91 224.05-22.95 228.88-22.95L228.88-22.95Q233.67-22.95 236.21-19.93 238.74-16.92 238.74-11.25L238.74-11.25Q238.74-5.62 236.24-2.69 233.74 0.24 228.88 0.24L228.88 0.24ZM228.76-2.88Q231.93-2.88 233.45-4.94 234.96-7.01 234.96-11.33L234.96-11.33Q234.96-15.67 233.45-17.75 231.93-19.82 228.76-19.82L228.76-19.82Q225.61-19.82 224.12-17.76 222.63-15.7 222.63-11.33L222.63-11.33Q222.63-6.98 224.11-4.93 225.59-2.88 228.76-2.88L228.76-2.88ZM246.8 0.07Q245.87 0.07 245.46-0.16 245.04-0.39 245.04-0.88L245.04-0.88 245.04-16.11Q245.04-18.95 244.77-20.2 244.5-21.46 244.5-21.58L244.5-21.58Q244.5-22.12 245.32-22.35 246.14-22.58 246.87-22.58L246.87-22.58Q247.46-22.58 247.75-21.96 248.04-21.34 248.26-20.21L248.26-20.21 248.39-19.7Q250.7-22.95 253.41-22.95L253.41-22.95Q254.66-22.95 255.29-22.5 255.93-22.05 255.93-21.29L255.93-21.29Q255.93-20.56 255.67-19.74 255.42-18.92 255.08-18.92L255.08-18.92Q254.9-18.92 254.46-19.07L254.46-19.07Q254.07-19.24 253.68-19.32 253.29-19.41 252.68-19.41L252.68-19.41Q251.68-19.41 250.79-18.82 249.9-18.24 249.29-17.53 248.68-16.82 248.68-16.75L248.68-16.75 248.68-0.88Q248.68-0.39 248.26-0.16 247.85 0.07 246.97 0.07L246.97 0.07 246.8 0.07Z" opacity="1" transform="matrix(1,0,0,1,0,0)" fill="#000000" class="undefined-text-0" data-fill-palette-color="primary" id="text-0"></path></svg></g></svg></g></svg></g></svg></g><g><svg viewBox="0 0 71.40048856477888 71.4004885647789" height="71.4004885647789" width="71.40048856477888"><g><svg></svg></g><g id="icon-0"><svg viewBox="0 0 71.40048856477888 71.4004885647789" height="71.4004885647789" width="71.40048856477888"><g><path xmlns="http://www.w3.org/2000/svg" d="M21.42 71.4c-11.83 0-21.42-9.59-21.42-21.42v-28.56c0-11.83 9.59-21.42 21.42-21.42h28.56c11.83 0 21.42 9.59 21.42 21.42v28.56c0 11.83-9.59 21.42-21.42 21.42z" fill="#000000" fill-rule="nonzero" stroke="none" stroke-width="1" stroke-linecap="butt" stroke-linejoin="miter" stroke-miterlimit="10" stroke-dasharray="" stroke-dashoffset="0" font-family="none" font-weight="none" font-size="none" text-anchor="none" style="mix-blend-mode: normal" data-fill-palette-color="accent"></path></g><g transform="matrix(1,0,0,1,13.781368759657976,14.28009771295578)"><svg viewBox="0 0 43.83775104546293 42.84029313886734" height="42.84029313886734" width="43.83775104546293"><g><svg xmlns="http://www.w3.org/2000/svg" xmlns:xlink="http://www.w3.org/1999/xlink" version="1.1" x="0" y="0" viewBox="4.000085353851318 5.013332843780518 91.05855560302734 88.98666381835938" enable-background="new 0 0 100 100" xml:space="preserve" height="42.84029313886734" width="43.83775104546293" class="icon-a-0" data-fill-palette-color="quaternary" id="a-0"><g fill="#518063" data-fill-palette-color="quaternary"><circle cx="55.538" cy="19.677" r="4.9" fill="#518063" data-fill-palette-color="quaternary"></circle></g><g fill="#518063" data-fill-palette-color="quaternary"><circle cx="23.472" cy="42.596" r="4.9" fill="#518063" data-fill-palette-color="quaternary"></circle></g><g fill="#518063" data-fill-palette-color="quaternary"><circle cx="45.736" cy="65.145" r="4.9" fill="#518063" data-fill-palette-color="quaternary"></circle></g><g fill="#518063" data-fill-palette-color="quaternary"><circle cx="12.968" cy="82.662" r="4.9" fill="#518063" data-fill-palette-color="quaternary"></circle></g><g fill="#518063" data-fill-palette-color="quaternary"><circle cx="81.493" cy="25.552" r="4.9" fill="#518063" data-fill-palette-color="quaternary"></circle></g><g fill="#518063" data-fill-palette-color="quaternary"><circle cx="47.69" cy="89.1" r="4.9" fill="#518063" data-fill-palette-color="quaternary"></circle></g><g fill="#518063" data-fill-palette-color="quaternary"><path d="M12.968 83.811c-0.145 0-0.287-0.027-0.419-0.078-0.101-0.041-0.197-0.094-0.285-0.162-0.15-0.117-0.273-0.273-0.353-0.457-0.02-0.047-0.037-0.096-0.05-0.143L4.046 56.078c-0.136-0.471 0.039-0.975 0.438-1.258l51.203-36.386c0.455-0.323 1.075-0.273 1.473 0.117s0.457 1.01 0.143 1.47L16.579 79.428l28.615-15.297c0.166-0.088 0.353-0.135 0.542-0.135h46.606L80.492 26.358 58.655 7.024c-0.475-0.421-0.52-1.147-0.098-1.623 0.42-0.475 1.147-0.52 1.622-0.099l22.075 19.545c0.156 0.139 0.272 0.317 0.335 0.516l12.417 39.437c0.109 0.348 0.047 0.729-0.17 1.023-0.217 0.297-0.561 0.471-0.927 0.471H46.024L13.532 83.664c-0.051 0.027-0.104 0.053-0.159 0.074-0.069 0.025-0.141 0.045-0.212 0.057C13.097 83.807 13.032 83.811 12.968 83.811zM6.482 56.221l6.912 23.785 38.356-55.953L6.482 56.221z" fill="#518063" data-fill-palette-color="quaternary"></path></g><g fill="#518063" data-fill-palette-color="quaternary"><path d="M45.737 66.295c-0.077 0-0.155-0.008-0.233-0.023l0 0c-0.001 0-0.002 0-0.002 0-0.017-0.004-0.032-0.008-0.047-0.012l0 0c-0.003 0-0.004 0-0.006-0.002l0 0c-0.213-0.055-0.396-0.164-0.539-0.312L10.716 31.75 6.281 55.965c-0.114 0.625-0.714 1.037-1.338 0.924-0.625-0.115-1.038-0.715-0.924-1.338l4.829-26.37c0.076-0.42 0.381-0.763 0.788-0.891 0.408-0.127 0.854-0.018 1.155 0.285l34.292 34.292 9.896-42.656-28.495-7.184c-0.526-0.132-0.888-0.614-0.868-1.156s0.416-0.997 0.949-1.091l32.653-5.749c0.38-0.067 0.769 0.062 1.033 0.341 0.266 0.28 0.373 0.675 0.286 1.051l-2.81 12.109 24.046 6.062c0.391 0.099 0.702 0.396 0.819 0.782 0.116 0.386 0.022 0.806-0.249 1.105L46.603 65.9c-0.065 0.076-0.141 0.143-0.224 0.197 0 0.002-0.001 0.002-0.001 0.002-0.001 0-0.001 0-0.002 0l-0.001 0.002c-0.001 0-0.001 0-0.001 0-0.017 0.012-0.032 0.021-0.049 0.031-0.001 0-0.001 0-0.001 0-0.001 0-0.001 0-0.002 0.002h-0.001c-0.001 0-0.001 0-0.001 0C46.146 66.238 45.945 66.295 45.737 66.295zM57.209 20.773l-9.354 40.323 31.499-34.74L57.209 20.773zM32.262 12.112l23.237 5.858 2.406-10.373L32.262 12.112z" fill="#518063" data-fill-palette-color="quaternary"></path></g><g fill="#518063" data-fill-palette-color="quaternary"><path d="M47.69 90.25c-0.069 0-0.14-0.006-0.21-0.02l-34.722-6.439c-0.624-0.115-1.036-0.715-0.921-1.34 0.116-0.623 0.717-1.037 1.34-0.92l33.245 6.164-1.82-22.307-18.92-53.09c-0.214-0.598 0.099-1.256 0.697-1.469 0.598-0.213 1.255 0.099 1.469 0.697L46.819 64.76c0.033 0.094 0.055 0.191 0.062 0.293l1.955 23.953c0.028 0.357-0.11 0.707-0.376 0.947C48.248 90.145 47.973 90.25 47.69 90.25z" fill="#518063" data-fill-palette-color="quaternary"></path></g><g fill="#518063" data-fill-palette-color="quaternary"><path d="M47.689 90.25c-0.183 0-0.367-0.043-0.54-0.135-0.561-0.301-0.772-0.996-0.474-1.557l33.803-63.391c0.299-0.56 0.995-0.772 1.556-0.474 0.56 0.299 0.771 0.996 0.474 1.556L48.705 89.641C48.498 90.029 48.101 90.25 47.689 90.25z" fill="#518063" data-fill-palette-color="quaternary"></path></g></svg></g></svg></g></svg></g></svg></g></svg></g><defs></defs></svg><rect width="395.52" height="58.94239978531302" fill="none" stroke="none" visibility="hidden"></rect></g></svg></g></svg>